PathFileType  4	(X/Y/Z) C:\Users\15086\Documents\GitHub\mocap-processing\BertecTesting2023-09-14\
DataRate	CameraRate	NumFrames	NumMarkers	Units	OrigDataRate	OrigDataStartFrame	OrigNumFrames
  200.0		  200.0		   30		     10		 mm	  200.0	      1426	   1900
Frame#	Time	r_calc			r_toe			r_meta			r_ankle			r_mankle			l_calc			l_toe			l_meta			l_ankle			l_mankle			
		X1	Y1	Z1	X2	Y2	Z2	X3	Y3	Z3	X4	Y4	Z4	X5	Y5	Z5	X6	Y6	Z6	X7	Y7	Z7	X8	Y8	Z8	X9	Y9	Z9	X10	Y10	Z10	

1426	7.12500	868.458	458.322	-213.984	980.330	276.705	-173.779	942.454	307.506	-128.878	940.910	431.644	-155.347	961.752	417.046	-235.533	490.984	157.639	-277.764	658.944	54.418	-299.045	612.223	53.675	-350.887	562.850	168.603	-338.747	594.408	165.750	-260.030
1427	7.13000	885.591	432.419	-214.423	1012.885	260.738	-174.696	972.240	288.005	-129.452	960.333	411.845	-156.090	982.645	398.677	-237.126	475.407	172.708	-281.412	631.640	55.351	-300.004	586.106	55.893	-352.691	547.047	177.272	-342.752	578.831	171.603	-264.785
1428	7.13500	904.654	406.305	-215.384	1045.240	245.794	-174.870	1002.544	269.859	-129.936	980.942	392.110	-156.891	1004.219	380.347	-238.042	462.188	189.050	-286.342	606.410	56.939	-301.506	561.802	60.504	-354.719	532.732	186.541	-347.325	564.526	178.155	-269.858
1429	7.14000	925.563	380.776	-217.058	1078.224	231.959	-175.092	1033.634	252.812	-130.257	1002.423	373.196	-157.877	1027.406	362.996	-240.214	450.468	206.544	-292.646	583.349	59.651	-303.299	538.630	68.086	-356.542	519.298	196.986	-352.077	550.530	186.745	-274.728
1430	7.14500	948.085	355.576	-219.256	1111.803	219.454	-174.898	1065.242	237.034	-131.183	1025.115	354.535	-159.332	1051.295	346.251	-242.293	439.313	224.993	-299.164	561.620	63.887	-305.405	517.028	78.012	-358.592	506.862	208.654	-356.817	536.513	197.496	-278.895
1431	7.15000	971.905	330.631	-222.362	1145.535	208.336	-174.880	1097.355	222.515	-132.069	1048.415	336.332	-161.300	1076.316	330.003	-244.009	427.559	243.931	-305.555	539.768	70.363	-307.994	496.014	90.856	-360.951	493.964	221.835	-361.040	521.286	209.713	-282.663
1432	7.15500	996.589	306.224	-225.469	1179.597	199.313	-174.209	1129.782	209.525	-132.918	1072.444	318.864	-163.465	1100.936	313.841	-244.936	414.762	263.857	-312.201	517.075	78.248	-310.876	476.212	105.908	-363.846	480.305	236.160	-364.113	505.217	222.964	-286.700
1433	7.16000	1022.560	282.390	-229.897	1212.844	191.965	-174.187	1162.161	197.806	-134.262	1096.677	302.223	-165.893	1126.130	299.342	-247.465	401.845	283.934	-317.121	493.086	86.952	-312.827	457.578	121.876	-366.195	466.457	251.778	-366.201	489.483	238.674	-289.169
1434	7.16500	1049.291	259.574	-233.988	1246.641	185.846	-175.500	1194.441	187.399	-135.686	1120.841	286.550	-169.176	1151.740	285.883	-249.503	389.702	304.247	-322.796	469.563	103.743	-312.603	437.002	138.809	-367.492	453.082	268.010	-369.338	473.211	254.985	-288.615
1435	7.17000	1076.621	237.880	-238.437	1278.683	181.143	-176.838	1225.976	177.888	-137.744	1144.833	270.939	-171.065	1176.444	273.399	-252.162	377.302	324.919	-325.681	447.149	123.319	-311.969	417.911	157.633	-369.077	440.589	285.248	-371.672	457.389	272.000	-290.075
1436	7.17500	1104.195	218.131	-242.417	1309.406	177.342	-178.722	1256.730	169.295	-140.366	1168.545	256.070	-173.917	1200.791	261.395	-254.655	364.874	346.586	-328.559	425.970	141.354	-311.834	400.875	177.148	-369.975	427.835	303.567	-373.915	441.906	291.017	-290.930
1437	7.18000	1132.170	198.320	-244.433	1338.550	173.971	-181.127	1286.522	161.198	-143.554	1192.227	241.286	-175.469	1224.434	250.098	-256.833	354.714	369.038	-332.296	406.166	160.830	-311.809	383.284	197.406	-370.746	416.080	322.759	-376.666	428.244	310.610	-292.699
1438	7.18500	1158.613	182.114	-247.867	1365.746	170.878	-184.522	1315.248	153.629	-147.682	1215.047	227.102	-177.660	1247.004	239.445	-259.217	346.876	392.520	-335.847	387.865	182.564	-311.659	366.415	218.638	-371.451	406.273	342.222	-379.653	416.709	331.148	-294.262
1439	7.19000	1183.488	167.645	-250.238	1391.602	168.248	-188.644	1342.036	146.362	-151.742	1236.340	213.308	-178.735	1268.054	229.390	-261.374	341.101	416.432	-339.206	370.687	204.798	-311.735	351.093	241.231	-372.188	397.391	362.244	-379.849	407.698	352.131	-296.366
1440	7.19500	1206.524	155.321	-252.694	1414.900	166.807	-193.849	1367.330	140.474	-156.767	1257.858	202.218	-181.167	1287.237	220.434	-263.209	337.926	440.818	-342.108	355.047	227.937	-312.104	337.296	264.695	-373.059	390.390	382.357	-380.960	400.405	371.662	-300.250
1441	7.20000	1227.150	144.863	-254.794	1432.800	166.153	-199.206	1390.048	135.855	-162.380	1277.199	192.442	-183.374	1304.006	213.194	-264.884	337.481	465.205	-344.843	341.247	251.979	-313.043	325.433	289.286	-374.367	386.216	402.649	-382.312	395.433	392.610	-302.012
1442	7.20500	1244.797	135.764	-256.753	1452.747	167.691	-205.049	1410.157	132.562	-168.145	1293.886	183.498	-186.199	1317.589	207.672	-266.378	339.820	490.154	-346.832	329.897	277.054	-314.175	316.464	314.917	-376.134	385.273	425.061	-385.804	392.991	413.605	-303.754
1443	7.21000	1259.422	128.174	-258.034	1465.960	169.091	-211.232	1425.335	129.801	-174.210	1307.515	175.904	-187.622	1328.348	203.524	-267.467	345.067	514.570	-348.672	321.636	302.569	-316.907	309.999	341.386	-378.786	385.589	446.792	-387.777	392.618	434.592	-305.427
1444	7.21500	1270.600	122.124	-258.541	1476.938	170.042	-216.976	1440.957	128.264	-180.488	1318.080	169.928	-188.508	1336.432	200.190	-268.543	352.645	538.266	-349.531	314.949	327.933	-319.256	306.288	367.998	-381.210	387.729	469.045	-391.841	394.443	454.779	-307.260
1445	7.22000	1278.656	117.120	-259.173	1484.262	170.134	-222.403	1450.718	126.185	-185.881	1325.792	165.778	-189.590	1341.944	197.434	-269.217	362.496	560.912	-349.675	311.260	352.900	-322.654	305.422	394.090	-383.878	393.172	489.828	-390.416	398.435	474.281	-308.327
1446	7.22500	1283.138	113.012	-259.971	1488.380	169.277	-226.476	1456.532	123.960	-190.439	1329.828	162.235	-190.401	1344.856	194.608	-269.782	373.858	582.437	-348.990	310.385	376.931	-325.982	307.272	419.778	-387.037	400.207	509.664	-391.279	404.183	492.949	-308.853
1447	7.23000	1284.224	109.331	-260.645	1488.859	166.910	-229.266	1458.387	120.544	-193.436	1330.744	158.396	-191.156	1344.809	191.301	-270.476	386.437	601.975	-348.308	312.126	399.839	-329.668	311.444	444.297	-389.603	408.676	529.307	-391.778	411.405	510.484	-310.050
1448	7.23500	1281.950	105.310	-261.439	1486.505	163.217	-230.001	1456.469	116.060	-195.255	1328.608	154.013	-192.181	1342.218	187.565	-270.828	399.549	620.254	-346.520	316.026	421.399	-333.915	320.266	465.731	-390.878	416.180	549.274	-393.306	420.293	526.885	-310.253
1449	7.24000	1276.907	102.082	-262.325	1481.207	157.863	-229.822	1451.031	110.370	-195.508	1322.755	149.125	-192.161	1337.077	183.165	-270.967	413.842	637.578	-343.975	322.054	441.426	-338.244	328.502	487.632	-393.807	429.538	564.594	-391.553	430.576	541.964	-310.475
1450	7.24500	1268.204	96.897	-263.210	1473.227	150.539	-228.483	1442.036	103.392	-194.885	1314.190	143.842	-192.474	1329.436	178.072	-271.438	428.933	652.963	-341.122	330.324	459.757	-342.060	336.583	509.531	-396.810	442.485	581.197	-391.121	442.079	555.713	-311.053
1451	7.25000	1257.248	91.823	-263.842	1462.769	141.715	-226.952	1430.164	95.511	-193.415	1302.996	138.440	-192.796	1320.323	171.875	-270.638	445.144	666.704	-338.426	340.767	476.337	-345.329	348.640	527.828	-398.491	453.244	596.090	-389.735	455.118	567.907	-310.854
1452	7.25500	1243.200	85.347	-265.188	1450.232	131.734	-225.011	1415.390	86.349	-191.473	1289.585	132.693	-193.175	1308.404	164.869	-271.184	462.220	678.607	-335.969	352.744	491.353	-349.120	362.120	544.705	-400.215	471.208	609.872	-390.188	469.322	578.626	-310.782
1453	7.26000	1227.902	80.199	-266.518	1435.761	120.781	-223.096	1398.364	76.813	-189.475	1273.910	126.514	-193.218	1294.572	157.412	-271.798	479.768	688.183	-333.316	366.023	504.502	-351.690	376.924	558.266	-402.119	484.388	620.266	-388.667	484.502	587.821	-311.506
1454	7.26500	1209.858	74.288	-265.741	1418.016	108.162	-221.215	1379.474	66.785	-187.772	1256.814	120.084	-193.447	1278.460	149.672	-273.193	498.130	696.635	-331.713	380.455	515.899	-354.216	392.417	571.102	-403.075	500.992	631.665	-390.716	500.498	595.511	-311.699
1455	7.27000	1190.147	67.956	-266.407	1399.130	95.228	-220.324	1358.866	55.844	-186.656	1238.303	113.280	-193.437	1261.103	141.468	-273.474	516.931	703.751	-329.946	395.837	525.276	-356.968	409.300	581.321	-403.947	522.155	636.909	-389.282	517.274	601.963	-311.109
